<?xml version="1.0" encoding="utf-8"?>
<svg xmlns="http://www.w3.org/2000/svg" width="138" height="29" viewBox="0 0 138 29" fill="none">
<path d="M0 14.4361C0 7.63087 0 4.22824 2.11412 2.11412C4.22824 0 7.63087 0 14.4361 0C21.2414 0 24.644 0 26.7582 2.11412C28.8723 4.22824 28.8723 7.63087 28.8723 14.4361C28.8723 21.2414 28.8723 24.644 26.7582 26.7582C24.644 28.8723 21.2414 28.8723 14.4361 28.8723C7.63087 28.8723 4.22824 28.8723 2.11412 26.7582C0 24.644 0 21.2414 0 14.4361Z" fill="#232B36"/>
<path d="M17.3236 18.7671C17.7222 18.7671 18.0527 19.0934 17.9735 19.4841C17.8335 20.1742 17.4936 20.8138 16.9883 21.319C16.3115 21.9959 15.3935 22.3761 14.4363 22.3761C13.4792 22.3761 12.5612 21.9959 11.8844 21.319C11.3791 20.8138 11.0392 20.1742 10.8993 19.4841C10.82 19.0934 11.1505 18.7671 11.5491 18.7671H17.3236Z" fill="#2DF8BB"/>
<path d="M18.8408 12.831C18.4557 12.9342 18.2199 13.337 18.4151 13.6845C18.6206 14.0504 18.9049 14.3696 19.2507 14.6174C19.7936 15.0065 20.4547 15.1953 21.1212 15.1515C21.7878 15.1079 22.4185 14.8345 22.9061 14.3778C23.3936 13.9212 23.7077 13.3096 23.7949 12.6474C23.8821 11.9851 23.737 11.3131 23.3843 10.7459C23.0315 10.1787 22.493 9.75128 21.8604 9.53654C21.2279 9.3218 20.5406 9.33306 19.9154 9.56837C19.5172 9.71822 19.1601 9.95302 18.8669 10.2531C18.5884 10.5383 18.7119 10.9885 19.0571 11.1878L19.4233 11.3992C19.9801 11.7208 19.8704 12.5551 19.2492 12.7216L18.8408 12.831Z" fill="#2DF8BB"/>
<path d="M10.0314 12.831C10.4165 12.9342 10.6523 13.337 10.4571 13.6845C10.2516 14.0504 9.96735 14.3696 9.6216 14.6174C9.07866 15.0065 8.41756 15.1953 7.75104 15.1515C7.08447 15.1079 6.45369 14.8345 5.96616 14.3778C5.47863 13.9212 5.16451 13.3096 5.07732 12.6474C4.99013 11.9851 5.13527 11.3131 5.488 10.7459C5.84074 10.1787 6.37925 9.75128 7.01177 9.53654C7.64429 9.3218 8.33173 9.33306 8.95689 9.56837C9.35497 9.71822 9.71219 9.95302 10.0054 10.2531C10.2839 10.5383 10.1604 10.9885 9.81512 11.1878L9.44895 11.3992C8.89207 11.7208 9.00193 12.5551 9.62305 12.7216L10.0314 12.831Z" fill="#2DF8BB"/>
<path d="M44.5964 21.4702L43.809 18.4639H40.3911L39.6216 21.4702H36.9016L40.2837 8.97961H44.0774L47.4595 21.4702H44.5964ZM42.1805 11.5744H42.0374L40.8205 16.2986H43.3974L42.1805 11.5744Z" fill="#232B36"/>
<path d="M49.4471 19.4123H52.2745V10.2859H49.4471V8.22803H54.923V19.4123H57.7504V21.4702H49.4471V19.4123Z" fill="#232B36"/>
<path d="M65.7328 21.4702C64.7784 21.4702 64.0685 21.2197 63.6033 20.7187C63.138 20.2176 62.9054 19.5794 62.9054 18.8039V14.2944H60.4001V12.2365H62.0285C62.4222 12.2365 62.7026 12.1589 62.8696 12.0038C63.0366 11.8488 63.1201 11.5624 63.1201 11.1449V8.97961H65.5538V12.2365H69.1507V14.2944H65.5538V19.4123H69.1507V21.4702H65.7328Z" fill="#232B36"/>
<path d="M76.6857 21.685C75.1348 21.685 73.9597 21.2555 73.1604 20.3966C72.3611 19.5376 71.9615 18.3685 71.9615 16.8892C71.9615 16.1376 72.0629 15.4635 72.2657 14.867C72.4804 14.2586 72.7787 13.7456 73.1604 13.3281C73.5541 12.8986 74.0253 12.5765 74.5741 12.3617C75.1348 12.1351 75.7611 12.0217 76.4531 12.0217C77.145 12.0217 77.7654 12.1351 78.3141 12.3617C78.8629 12.5765 79.3282 12.8867 79.7099 13.2923C80.0917 13.6979 80.384 14.193 80.5868 14.7776C80.8015 15.3502 80.9089 15.9944 80.9089 16.7102V17.4976H74.592V17.6586C74.592 18.2551 74.7769 18.7383 75.1467 19.1081C75.5166 19.466 76.0594 19.645 76.7752 19.645C77.324 19.645 77.7952 19.5436 78.1889 19.3408C78.5826 19.126 78.9226 18.8457 79.2089 18.4997L80.6405 20.0566C80.2826 20.498 79.7815 20.8797 79.1373 21.2018C78.4931 21.5239 77.6759 21.685 76.6857 21.685ZM76.471 13.9186C75.8983 13.9186 75.439 14.0976 75.0931 14.4554C74.759 14.8014 74.592 15.2727 74.592 15.8691V16.0123H78.3141V15.8691C78.3141 15.2607 78.1471 14.7835 77.8131 14.4376C77.491 14.0916 77.0436 13.9186 76.471 13.9186Z" fill="#232B36"/>
<path d="M83.8092 19.4123H85.9386V14.2944H83.8092V12.2365H88.5871V14.8491H88.7124C88.7959 14.5151 88.9092 14.193 89.0524 13.8828C89.2074 13.5607 89.3983 13.2804 89.625 13.0418C89.8636 12.7912 90.1499 12.5944 90.4839 12.4512C90.818 12.3081 91.2117 12.2365 91.665 12.2365H92.5419V14.6702H90.5734C89.9173 14.6702 89.4222 14.867 89.0881 15.2607C88.7541 15.6425 88.5871 16.1137 88.5871 16.6744V19.4123H91.6292V21.4702H83.8092V19.4123Z" fill="#232B36"/>
<path d="M94.9589 8.22803H97.6074V13.9186H97.7326C97.9593 13.3698 98.2874 12.9165 98.7169 12.5586C99.1463 12.2007 99.7309 12.0217 100.471 12.0217C100.984 12.0217 101.449 12.1172 101.866 12.3081C102.296 12.4989 102.66 12.7912 102.958 13.1849C103.268 13.5786 103.507 14.0797 103.674 14.6881C103.853 15.2965 103.942 16.0183 103.942 16.8534C103.942 17.6885 103.853 18.4102 103.674 19.0186C103.507 19.6271 103.268 20.1281 102.958 20.5218C102.66 20.9155 102.296 21.2078 101.866 21.3987C101.449 21.5895 100.984 21.685 100.471 21.685C99.7309 21.685 99.1463 21.512 98.7169 21.166C98.2874 20.8081 97.9593 20.3488 97.7326 19.7881H97.6074V21.4702H94.9589V8.22803ZM99.3253 19.6271C99.9218 19.6271 100.381 19.4481 100.703 19.0902C101.025 18.7204 101.186 18.2134 101.186 17.5692V16.1376C101.186 15.4934 101.025 14.9923 100.703 14.6344C100.381 14.2646 99.9218 14.0797 99.3253 14.0797C98.86 14.0797 98.4544 14.193 98.1084 14.4197C97.7744 14.6463 97.6074 15.0042 97.6074 15.4934V18.2134C97.6074 18.7025 97.7744 19.0604 98.1084 19.2871C98.4544 19.5137 98.86 19.6271 99.3253 19.6271Z" fill="#232B36"/>
<path d="M110.69 21.685C109.974 21.685 109.33 21.5776 108.757 21.3629C108.185 21.1362 107.695 20.8141 107.29 20.3966C106.896 19.979 106.592 19.472 106.377 18.8755C106.162 18.279 106.055 17.605 106.055 16.8534C106.055 16.1018 106.162 15.4277 106.377 14.8312C106.592 14.2347 106.896 13.7277 107.29 13.3102C107.695 12.8926 108.185 12.5765 108.757 12.3617C109.33 12.1351 109.974 12.0217 110.69 12.0217C111.406 12.0217 112.05 12.1351 112.622 12.3617C113.195 12.5765 113.678 12.8926 114.072 13.3102C114.478 13.7277 114.788 14.2347 115.002 14.8312C115.217 15.4277 115.325 16.1018 115.325 16.8534C115.325 17.605 115.217 18.279 115.002 18.8755C114.788 19.472 114.478 19.979 114.072 20.3966C113.678 20.8141 113.195 21.1362 112.622 21.3629C112.05 21.5776 111.406 21.685 110.69 21.685ZM110.69 19.7165C111.286 19.7165 111.752 19.5316 112.086 19.1618C112.42 18.792 112.587 18.2671 112.587 17.5871V16.1197C112.587 15.4397 112.42 14.9148 112.086 14.5449C111.752 14.1751 111.286 13.9902 110.69 13.9902C110.093 13.9902 109.628 14.1751 109.294 14.5449C108.96 14.9148 108.793 15.4397 108.793 16.1197V17.5871C108.793 18.2671 108.96 18.792 109.294 19.1618C109.628 19.5316 110.093 19.7165 110.69 19.7165Z" fill="#232B36"/>
<path d="M117.903 21.4702V12.2365H120.551V13.9186H120.659C120.766 13.6561 120.897 13.4116 121.052 13.1849C121.207 12.9582 121.392 12.7614 121.607 12.5944C121.834 12.4154 122.09 12.2782 122.376 12.1828C122.675 12.0754 123.009 12.0217 123.379 12.0217C123.82 12.0217 124.226 12.0993 124.595 12.2544C124.965 12.3975 125.281 12.6182 125.544 12.9165C125.806 13.2147 126.009 13.5786 126.152 14.0081C126.307 14.4376 126.385 14.9326 126.385 15.4934V21.4702H123.736V15.8513C123.736 14.6583 123.218 14.0618 122.18 14.0618C121.977 14.0618 121.774 14.0916 121.571 14.1512C121.38 14.199 121.207 14.2825 121.052 14.4018C120.897 14.5091 120.772 14.6463 120.676 14.8133C120.593 14.9804 120.551 15.1772 120.551 15.4039V21.4702H117.903Z" fill="#232B36"/>
<path d="M133.777 21.685C132.226 21.685 131.051 21.2555 130.251 20.3966C129.452 19.5376 129.053 18.3685 129.053 16.8892C129.053 16.1376 129.154 15.4635 129.357 14.867C129.571 14.2586 129.87 13.7456 130.251 13.3281C130.645 12.8986 131.116 12.5765 131.665 12.3617C132.226 12.1351 132.852 12.0217 133.544 12.0217C134.236 12.0217 134.856 12.1351 135.405 12.3617C135.954 12.5765 136.419 12.8867 136.801 13.2923C137.183 13.6979 137.475 14.193 137.678 14.7776C137.893 15.3502 138 15.9944 138 16.7102V17.4976H131.683V17.6586C131.683 18.2551 131.868 18.7383 132.238 19.1081C132.608 19.466 133.15 19.645 133.866 19.645C134.415 19.645 134.886 19.5436 135.28 19.3408C135.674 19.126 136.014 18.8457 136.3 18.4997L137.732 20.0566C137.374 20.498 136.873 20.8797 136.228 21.2018C135.584 21.5239 134.767 21.685 133.777 21.685ZM133.562 13.9186C132.989 13.9186 132.53 14.0976 132.184 14.4554C131.85 14.8014 131.683 15.2727 131.683 15.8691V16.0123H135.405V15.8691C135.405 15.2607 135.238 14.7835 134.904 14.4376C134.582 14.0916 134.135 13.9186 133.562 13.9186Z" fill="#232B36"/>
</svg>