<?xml version="1.0" encoding="utf-8"?>
<svg xmlns="http://www.w3.org/2000/svg" width="149" height="28" viewBox="0 0 149 28" fill="none">
<path d="M12.0449 0.78418L28.3622 0.78418L16.3657 18.5146H0.0484619L12.0449 0.78418Z" fill="#007AFF"/>
<path d="M12.7594 20.1579L8.11292 27.0254H25.2042L37.2006 9.29492H24.5862L17.2363 20.1579H12.7594Z" fill="#312ECB"/>
<path d="M45.821 5.41016C45.9552 6.394 45.9999 7.04245 45.9999 8.71945V20.7045C45.9999 22.2026 45.9552 23.1417 45.821 24.0138H50.7403C50.6061 23.0747 50.5614 22.2473 50.5614 20.7045V8.71945C50.5614 7.08717 50.6061 6.32692 50.7403 5.41016H45.821Z" fill="#26254A"/>
<path d="M57.9346 24.0138C57.8005 22.8511 57.7558 21.9119 57.7558 20.6374V16.1207C58.7172 14.5554 59.8353 13.7728 61.0874 13.7728C61.7582 13.7728 62.2725 13.9964 62.5632 14.3989C62.8315 14.779 62.9209 15.1592 62.9209 16.0536V20.6374C62.9209 22.0014 62.8762 22.9405 62.7421 24.0138H67.393C67.2812 23.0747 67.2141 21.9566 67.2141 20.6598V15.0474C67.2141 13.2809 66.834 12.1853 65.9396 11.2909C65.1122 10.4635 63.8824 10.0387 62.3396 10.0387C60.5061 10.0387 59.1421 10.5977 57.7334 11.9393C57.7334 11.7828 57.7558 11.4474 57.7558 11.3132V10.3741H53.3061C53.4403 11.2685 53.485 12.2076 53.485 13.7505V20.6374C53.485 22.0237 53.4403 22.9629 53.3061 24.0138H57.9346Z" fill="#26254A"/>
<path d="M82.8969 14.5107C82.159 11.5368 79.7665 9.83746 76.323 9.83746C71.9628 9.83746 69.1454 12.6996 69.1454 17.1716C69.1454 19.3629 69.861 21.3306 71.1579 22.6051C72.3877 23.8573 74.2212 24.5281 76.3678 24.5281C78.9615 24.5281 80.9963 23.6113 82.1143 21.9566C82.5392 21.3082 82.8075 20.7045 83.0534 19.743L78.9392 19.0946C78.8497 19.6088 78.7379 19.8324 78.5367 20.1231C78.0895 20.7492 77.2845 21.107 76.4125 21.107C74.6237 21.107 73.4833 19.5418 73.4833 17.1269C73.4833 14.6672 74.5566 13.2362 76.3678 13.2362C77.1727 13.2362 77.7988 13.5045 78.246 14.0188C78.5367 14.3542 78.6709 14.6672 78.8721 15.338L82.8969 14.5107Z" fill="#26254A"/>
<path d="M93.7601 15.1815C92.1502 15.2262 91.4794 15.2486 90.6073 15.338C88.5949 15.5169 87.0968 15.9865 85.9564 16.7915C84.8831 17.5293 84.3241 18.6474 84.3241 20.056C84.3241 21.2858 84.749 22.3591 85.5539 23.097C86.4483 23.9243 87.7229 24.3268 89.4222 24.3268C91.2558 24.3268 92.5079 23.9467 93.7601 22.9852V24.0138H98.098C97.9862 23.0076 97.9414 22.2026 97.9414 20.8386V14.8014C97.9414 12.789 97.3154 11.5592 95.8843 10.7766C95.0123 10.307 93.4023 9.99398 91.7477 9.99398C89.5788 9.99398 87.9241 10.4188 86.7167 11.2685C85.7775 11.9393 85.2856 12.6548 84.8384 13.9741L89.1092 14.6672C89.4446 13.5716 90.2048 13.102 91.6359 13.102C93.1117 13.102 93.7601 13.594 93.7601 14.6672V15.1815ZM93.7601 18.6697C93.7601 19.3405 93.4694 19.9442 92.9551 20.3914C92.3514 20.9057 91.3452 21.2411 90.4284 21.2411C89.2657 21.2411 88.5949 20.7716 88.5949 19.9666C88.5949 19.3182 89.0868 18.7592 89.8918 18.4908C90.8086 18.2001 91.77 18.0883 93.7601 18.0436V18.6697Z" fill="#26254A"/>
<path d="M105.101 24.0138C104.966 22.8511 104.922 21.9119 104.922 20.6374V16.1207C105.883 14.5554 107.001 13.7728 108.253 13.7728C108.924 13.7728 109.438 13.9964 109.729 14.3989C109.997 14.779 110.087 15.1592 110.087 16.0536V20.6374C110.087 22.0014 110.042 22.9405 109.908 24.0138H114.559C114.447 23.0747 114.38 21.9566 114.38 20.6598V15.0474C114.38 13.2809 114 12.1853 113.105 11.2909C112.278 10.4635 111.048 10.0387 109.505 10.0387C107.672 10.0387 106.308 10.5977 104.899 11.9393C104.899 11.7828 104.922 11.4474 104.922 11.3132V10.3741H100.472C100.606 11.2685 100.651 12.2076 100.651 13.7505V20.6374C100.651 22.0237 100.606 22.9629 100.472 24.0138H105.101Z" fill="#26254A"/>
<path d="M118.659 10.3741H117.854C117.072 10.3741 116.513 10.3294 115.864 10.2399V13.9741C116.513 13.8846 117.094 13.8399 117.809 13.8399H118.659V20.6821C118.659 22.2026 118.972 22.9629 119.822 23.6113C120.537 24.1479 121.588 24.3939 123.109 24.3939C124.316 24.3939 125.188 24.2597 126.195 23.9467L125.859 20.548C125.3 20.8386 124.875 20.9504 124.294 20.9504C123.869 20.9504 123.511 20.861 123.265 20.7045C122.975 20.5032 122.863 20.1902 122.863 19.5641V13.8399H123.802C124.607 13.8399 125.188 13.8846 125.859 13.9741V10.2623C125.166 10.3517 124.652 10.3741 123.668 10.3741H122.863V9.90454C122.863 8.83126 122.93 7.75797 123.042 6.8412H118.48C118.614 7.89213 118.659 8.78653 118.659 9.90454V10.3741Z" fill="#26254A"/>
<path d="M134.367 24.5281C138.817 24.5281 141.769 21.5765 141.769 17.1269C141.769 12.6996 138.907 9.85982 134.39 9.85982C129.873 9.85982 127.011 12.6996 127.011 17.1716C127.011 21.666 129.873 24.5281 134.367 24.5281ZM134.412 13.2138C136.313 13.2138 137.453 14.6896 137.453 17.1939C137.453 19.6759 136.335 21.1293 134.39 21.1293C132.445 21.1293 131.282 19.6312 131.282 17.1492C131.282 14.6896 132.445 13.2138 134.412 13.2138Z" fill="#26254A"/>
<path d="M143.532 19.497V24.0138H148.048V19.497H143.532Z" fill="#26254A"/>
</svg>