<?xml version="1.0" encoding="utf-8"?>
<svg xmlns="http://www.w3.org/2000/svg" width="122" height="30" viewBox="0 0 122 30" fill="none">
<path d="M21.2131 14.2408C22.2445 13.3771 22.9004 12.0797 22.9004 10.6291C22.9004 9.17857 22.2445 7.8812 21.2131 7.01744C21.3313 6.9602 21.445 6.89807 21.5534 6.83075C22.2376 6.40535 23.0451 6.15967 23.91 6.15967C26.3784 6.15967 28.3795 8.16075 28.3795 10.6291C28.3795 13.0975 26.3784 15.0986 23.91 15.0986C23.0451 15.0986 22.2376 14.8529 21.5534 14.4275C21.445 14.3602 21.3313 14.2981 21.2131 14.2408Z" fill="url(#paint0_linear_821_2486)"/>
<path d="M19.9717 11.3327C20.4331 10.069 20.3525 8.61743 19.6272 7.3612C18.9019 6.10497 17.6851 5.30938 16.36 5.07708C16.4338 4.96842 16.5012 4.85773 16.5613 4.74524C16.9411 4.03476 17.5177 3.41823 18.2667 2.98577C20.4044 1.75156 23.1379 2.484 24.3721 4.6217C25.6063 6.75942 24.8739 9.49292 22.7361 10.7271C21.9871 11.1596 21.1649 11.3505 20.3597 11.3243C20.2323 11.3201 20.1027 11.3232 19.9717 11.3327Z" fill="url(#paint1_linear_821_2486)"/>
<path d="M17.4424 9.43489C17.2101 8.10976 16.4145 6.89302 15.1583 6.16773C13.902 5.44245 12.4505 5.36182 11.1868 5.8232C11.1964 5.69223 11.1994 5.56264 11.1952 5.43516C11.1689 4.62995 11.3599 3.80776 11.7924 3.05871C13.0266 0.921009 15.7601 0.188576 17.8978 1.42278C20.0355 2.65699 20.768 5.39047 19.5337 7.5282C19.1013 8.27721 18.4847 8.85374 17.7742 9.23357C17.6618 9.29371 17.5511 9.36112 17.4424 9.43489Z" fill="url(#paint2_linear_821_2486)"/>
<path d="M14.3029 9.05606C13.4391 8.02461 12.1417 7.36869 10.6911 7.36869C9.24053 7.36869 7.94319 8.02461 7.07945 9.05606C7.02223 8.93785 6.96009 8.82409 6.89274 8.71571C6.46736 8.03155 6.22168 7.22405 6.22168 6.35912C6.22168 3.8907 8.22273 1.88965 10.6911 1.88965C13.1596 1.88965 15.1606 3.8907 15.1606 6.35912C15.1606 7.22405 14.9149 8.03155 14.4896 8.71571C14.4222 8.82409 14.36 8.93785 14.3029 9.05606Z" fill="url(#paint3_linear_821_2486)"/>
<path d="M11.3941 10.2974C10.1304 9.83599 8.67886 9.91661 7.42262 10.6418C6.16638 11.3671 5.37079 12.5839 5.13849 13.909C5.02983 13.8352 4.91914 13.7678 4.80664 13.7077C4.09617 13.3279 3.47963 12.7513 3.04718 12.0023C1.81296 9.86457 2.5454 7.13113 4.68311 5.89691C6.82082 4.66269 9.55429 5.39513 10.7885 7.53286C11.221 8.28187 11.412 9.10407 11.3856 9.90926C11.3815 10.0367 11.3846 10.1663 11.3941 10.2974Z" fill="url(#paint4_linear_821_2486)"/>
<path d="M9.49549 12.8271C8.17034 13.0594 6.9536 13.855 6.22831 15.1112C5.50303 16.3675 5.4224 17.819 5.88379 19.0827C5.7528 19.0732 5.6232 19.0701 5.4957 19.0742C4.6905 19.1006 3.86831 18.9096 3.11927 18.4771C0.981556 17.2429 0.249121 14.5094 1.48333 12.3717C2.71754 10.234 5.45102 9.50154 7.58873 10.7358C8.33777 11.1682 8.91427 11.7848 9.29409 12.4952C9.35423 12.6077 9.42173 12.7184 9.49549 12.8271Z" fill="url(#paint5_linear_821_2486)"/>
<path d="M9.11586 15.9667C8.0844 16.8305 7.42847 18.1278 7.42847 19.5783C7.42847 21.029 8.0844 22.3263 9.11586 23.1901C8.99765 23.2472 8.88388 23.3094 8.77555 23.3768C8.09138 23.8021 7.28384 24.0478 6.41892 24.0478C3.95051 24.0478 1.94946 22.0468 1.94946 19.5783C1.94946 17.1099 3.95051 15.1089 6.41892 15.1089C7.28384 15.1089 8.09138 15.3546 8.77555 15.78C8.88388 15.8473 8.99765 15.9094 9.11586 15.9667Z" fill="url(#paint6_linear_821_2486)"/>
<path d="M10.3569 18.8755C9.89543 20.1392 9.97606 21.5908 10.7014 22.847C11.4267 24.1033 12.6434 24.8988 13.9685 25.1311C13.8948 25.2398 13.8274 25.3505 13.7672 25.463C13.3874 26.1735 12.8109 26.79 12.0618 27.2224C9.92409 28.4567 7.19062 27.7242 5.95642 25.5865C4.7222 23.4488 5.45464 20.7153 7.59235 19.4811C8.34139 19.0486 9.1636 18.8576 9.96879 18.884C10.0963 18.8881 10.2259 18.8851 10.3569 18.8755Z" fill="url(#paint7_linear_821_2486)"/>
<path d="M12.8863 20.7739C13.1185 22.0991 13.9142 23.3158 15.1704 24.041C16.4266 24.7663 17.8782 24.8469 19.142 24.3856C19.1324 24.5166 19.1293 24.6461 19.1335 24.7737C19.1598 25.5789 18.9688 26.4011 18.5364 27.1501C17.3021 29.2878 14.5687 30.0202 12.4309 28.786C10.2932 27.5518 9.56076 24.8184 10.795 22.6806C11.2275 21.9316 11.844 21.3551 12.5544 20.9752C12.6669 20.9151 12.7776 20.8476 12.8863 20.7739Z" fill="url(#paint8_linear_821_2486)"/>
<path d="M16.026 21.1538C16.8898 22.1853 18.1871 22.8412 19.6377 22.8412C21.0883 22.8412 22.3857 22.1853 23.2495 21.1538C23.3066 21.272 23.3688 21.3858 23.4362 21.4941C23.8615 22.1782 24.1072 22.9858 24.1072 23.8507C24.1072 26.3192 22.1062 28.3202 19.6377 28.3202C17.1693 28.3202 15.1683 26.3192 15.1683 23.8507C15.1683 22.9858 15.414 22.1782 15.8393 21.4941C15.9067 21.3858 15.9688 21.272 16.026 21.1538Z" fill="url(#paint9_linear_821_2486)"/>
<path d="M18.935 19.9129C20.1987 20.3743 21.6503 20.2937 22.9065 19.5684C24.1627 18.8431 24.9583 17.6264 25.1906 16.3013C25.2993 16.375 25.4099 16.4424 25.5225 16.5026C26.233 16.8824 26.8495 17.4589 27.2819 18.208C28.5162 20.3457 27.7837 23.0791 25.646 24.3134C23.5083 25.5476 20.7749 24.8152 19.5406 22.6774C19.1081 21.9284 18.9172 21.1062 18.9434 20.301C18.9476 20.1736 18.9446 20.0439 18.935 19.9129Z" fill="url(#paint10_linear_821_2486)"/>
<path d="M24.1034 15.0946C24.1025 15.0961 24.1016 15.0977 24.1007 15.0993C23.3755 16.3555 22.1587 17.1511 20.8336 17.3834C20.9073 17.4921 20.9748 17.6028 21.0349 17.7152C21.4148 18.4258 21.9913 19.0423 22.7403 19.4747C24.8781 20.709 27.6115 19.9765 28.8458 17.8388C29.9038 16.0061 29.5164 13.7355 28.0373 12.3472C27.3875 13.9066 25.8797 15.0189 24.1034 15.0946Z" fill="url(#paint11_linear_821_2486)"/>
<path d="M39.6243 24.9591V6.93544H46.7352C48.0964 6.93544 49.258 7.17892 50.2202 7.66589C51.1883 8.14699 51.9246 8.83051 52.4292 9.71644C52.9396 10.5965 53.1949 11.632 53.1949 12.8231C53.1949 14.02 52.9367 15.0496 52.4204 15.9121C51.9041 16.7687 51.156 17.4258 50.1762 17.8834C49.2023 18.3411 48.023 18.5699 46.6384 18.5699H41.8772V15.5073H46.0223C46.7499 15.5073 47.3542 15.4075 47.8353 15.208C48.3164 15.0086 48.6743 14.7093 48.9089 14.3104C49.1495 13.9114 49.2698 13.4156 49.2698 12.8231C49.2698 12.2246 49.1495 11.7201 48.9089 11.3094C48.6743 10.8987 48.3134 10.5877 47.8265 10.3765C47.3454 10.1594 46.7381 10.0509 46.0047 10.0509H43.4349V24.9591H39.6243ZM49.3578 16.757L53.8373 24.9591H49.6306L45.2479 16.757H49.3578Z" fill="#2E4681"/>
<path d="M55.8174 24.9591V11.4414H59.5665V24.9591H55.8174ZM57.7008 9.69884C57.1434 9.69884 56.6652 9.51402 56.2663 9.1444C55.8732 8.7689 55.6766 8.32007 55.6766 7.7979C55.6766 7.2816 55.8732 6.83863 56.2663 6.469C56.6652 6.09351 57.1434 5.90576 57.7008 5.90576C58.2582 5.90576 58.7334 6.09351 59.1265 6.469C59.5254 6.83863 59.7249 7.2816 59.7249 7.7979C59.7249 8.32007 59.5254 8.7689 59.1265 9.1444C58.7334 9.51402 58.2582 9.69884 57.7008 9.69884Z" fill="#2E4681"/>
<path d="M67.5509 25.1792C66.5242 25.1792 65.5942 24.9151 64.7611 24.3871C63.9338 23.8532 63.2767 23.0699 62.7898 22.0373C62.3087 20.9989 62.0681 19.7257 62.0681 18.2179C62.0681 16.6689 62.3175 15.3811 62.8162 14.3544C63.3149 13.3218 63.9778 12.5502 64.8051 12.0398C65.6382 11.5235 66.5506 11.2654 67.5421 11.2654C68.299 11.2654 68.9297 11.3944 69.4342 11.6526C69.9447 11.9049 70.3554 12.2217 70.6663 12.603C70.9832 12.9785 71.2237 13.3482 71.388 13.7119H71.5024V6.93544H75.2427V24.9591H71.5464V22.7942H71.388C71.212 23.1697 70.9626 23.5422 70.6399 23.9119C70.3231 24.2756 69.9095 24.5778 69.399 24.8183C68.8945 25.0589 68.2784 25.1792 67.5509 25.1792ZM68.739 22.1957C69.3433 22.1957 69.8537 22.0315 70.2703 21.7029C70.6927 21.3685 71.0154 20.9021 71.2384 20.3036C71.4672 19.7052 71.5816 19.004 71.5816 18.2003C71.5816 17.3965 71.4701 16.6983 71.2472 16.1057C71.0242 15.5131 70.7015 15.0555 70.2791 14.7328C69.8567 14.4101 69.3433 14.2488 68.739 14.2488C68.1229 14.2488 67.6037 14.416 67.1813 14.7504C66.7588 15.0848 66.4391 15.5483 66.222 16.1409C66.0049 16.7335 65.8964 17.4199 65.8964 18.2003C65.8964 18.9864 66.0049 19.6817 66.222 20.286C66.445 20.8845 66.7647 21.3538 67.1813 21.6941C67.6037 22.0285 68.1229 22.1957 68.739 22.1957Z" fill="#2E4681"/>
<path d="M84.4327 25.2232C83.0657 25.2232 81.8835 24.9327 80.8861 24.3519C79.8945 23.7652 79.1289 22.9497 78.5891 21.9053C78.0493 20.8551 77.7794 19.6377 77.7794 18.2531C77.7794 16.8567 78.0493 15.6363 78.5891 14.592C79.1289 13.5418 79.8945 12.7263 80.8861 12.1454C81.8835 11.5587 83.0657 11.2654 84.4327 11.2654C85.7998 11.2654 86.979 11.5587 87.9706 12.1454C88.968 12.7263 89.7366 13.5418 90.2764 14.592C90.8161 15.6363 91.086 16.8567 91.086 18.2531C91.086 19.6377 90.8161 20.8551 90.2764 21.9053C89.7366 22.9497 88.968 23.7652 87.9706 24.3519C86.979 24.9327 85.7998 25.2232 84.4327 25.2232ZM84.4503 22.319C85.0722 22.319 85.5915 22.1429 86.008 21.7909C86.4246 21.433 86.7385 20.9461 86.9497 20.33C87.1668 19.714 87.2753 19.0128 87.2753 18.2267C87.2753 17.4405 87.1668 16.7394 86.9497 16.1233C86.7385 15.5073 86.4246 15.0203 86.008 14.6624C85.5915 14.3045 85.0722 14.1256 84.4503 14.1256C83.8226 14.1256 83.2945 14.3045 82.8662 14.6624C82.4438 15.0203 82.124 15.5073 81.9069 16.1233C81.6957 16.7394 81.5901 17.4405 81.5901 18.2267C81.5901 19.0128 81.6957 19.714 81.9069 20.33C82.124 20.9461 82.4438 21.433 82.8662 21.7909C83.2945 22.1429 83.8226 22.319 84.4503 22.319Z" fill="#2E4681"/>
<path d="M93.5238 24.9591V11.4414H97.1585V13.7999H97.2993C97.5457 12.9609 97.9593 12.3273 98.5402 11.899C99.121 11.4648 99.7898 11.2478 100.547 11.2478C100.734 11.2478 100.937 11.2595 101.154 11.283C101.371 11.3064 101.562 11.3387 101.726 11.3798V14.7064C101.55 14.6536 101.306 14.6067 100.996 14.5656C100.685 14.5245 100.4 14.504 100.142 14.504C99.5904 14.504 99.0975 14.6243 98.6634 14.8648C98.2351 15.0995 97.8948 15.4281 97.6425 15.8505C97.3961 16.2729 97.2729 16.7599 97.2729 17.3114V24.9591H93.5238Z" fill="#2E4681"/>
<path d="M103.664 24.9591V11.4414H107.413V24.9591H103.664ZM105.548 9.69884C104.99 9.69884 104.512 9.51402 104.113 9.1444C103.72 8.7689 103.524 8.32007 103.524 7.7979C103.524 7.2816 103.72 6.83863 104.113 6.469C104.512 6.09351 104.99 5.90576 105.548 5.90576C106.105 5.90576 106.58 6.09351 106.973 6.469C107.372 6.83863 107.572 7.2816 107.572 7.7979C107.572 8.32007 107.372 8.7689 106.973 9.1444C106.58 9.51402 106.105 9.69884 105.548 9.69884Z" fill="#2E4681"/>
<path d="M114.271 25.2144C113.409 25.2144 112.64 25.0648 111.966 24.7655C111.291 24.4604 110.757 24.0116 110.364 23.419C109.977 22.8206 109.783 22.0755 109.783 21.1837C109.783 20.4327 109.921 19.802 110.197 19.2915C110.472 18.7811 110.848 18.3704 111.323 18.0594C111.798 17.7485 112.338 17.5138 112.942 17.3554C113.553 17.197 114.192 17.0855 114.861 17.021C115.647 16.9388 116.281 16.8626 116.762 16.7922C117.243 16.7159 117.592 16.6044 117.809 16.4577C118.026 16.3111 118.135 16.094 118.135 15.8065V15.7537C118.135 15.1963 117.959 14.7651 117.607 14.46C117.261 14.1549 116.768 14.0024 116.128 14.0024C115.454 14.0024 114.917 14.152 114.518 14.4512C114.119 14.7445 113.855 15.1142 113.726 15.5601L110.258 15.2784C110.434 14.4571 110.78 13.7471 111.297 13.1487C111.813 12.5444 112.479 12.0809 113.294 11.7582C114.116 11.4296 115.066 11.2654 116.146 11.2654C116.897 11.2654 117.616 11.3534 118.302 11.5294C118.994 11.7054 119.607 11.9782 120.141 12.3478C120.681 12.7175 121.106 13.1927 121.417 13.7735C121.728 14.3485 121.884 15.0379 121.884 15.8417V24.9591H118.328V23.0846H118.223C118.006 23.507 117.715 23.8796 117.352 24.2023C116.988 24.5191 116.551 24.7685 116.04 24.9503C115.53 25.1264 114.94 25.2144 114.271 25.2144ZM115.345 22.627C115.896 22.627 116.383 22.5184 116.806 22.3014C117.228 22.0784 117.56 21.7792 117.8 21.4037C118.041 21.0282 118.161 20.6028 118.161 20.1276V18.6931C118.044 18.7694 117.882 18.8398 117.677 18.9043C117.478 18.963 117.252 19.0187 116.999 19.0715C116.747 19.1185 116.495 19.1625 116.243 19.2035C115.99 19.2387 115.762 19.271 115.556 19.3003C115.116 19.3649 114.732 19.4675 114.403 19.6084C114.075 19.7492 113.82 19.9398 113.638 20.1804C113.456 20.4151 113.365 20.7084 113.365 21.0605C113.365 21.5709 113.55 21.9611 113.919 22.2309C114.295 22.495 114.77 22.627 115.345 22.627Z" fill="#2E4681"/>
<defs>
<linearGradient id="paint0_linear_821_2486" x1="21.7727" y1="6.15967" x2="21.7727" y2="15.0986" gradientUnits="userSpaceOnUse">
<stop stop-color="#25136D"/>
<stop offset="1" stop-color="#3D9BA2"/>
</linearGradient>
<linearGradient id="paint1_linear_821_2486" x1="16.4157" y1="4.05442" x2="20.8852" y2="11.7958" gradientUnits="userSpaceOnUse">
<stop stop-color="#25136D"/>
<stop offset="1" stop-color="#3D9BA2"/>
</linearGradient>
<linearGradient id="paint2_linear_821_2486" x1="10.7237" y1="4.90969" x2="18.4651" y2="9.37913" gradientUnits="userSpaceOnUse">
<stop stop-color="#25136D"/>
<stop offset="1" stop-color="#3D9BA2"/>
</linearGradient>
<linearGradient id="paint3_linear_821_2486" x1="6.22168" y1="8.49638" x2="15.1606" y2="8.49638" gradientUnits="userSpaceOnUse">
<stop stop-color="#25136D"/>
<stop offset="1" stop-color="#3D9BA2"/>
</linearGradient>
<linearGradient id="paint4_linear_821_2486" x1="4.11584" y1="13.8532" x2="11.8572" y2="9.38379" gradientUnits="userSpaceOnUse">
<stop stop-color="#25136D"/>
<stop offset="1" stop-color="#3D9BA2"/>
</linearGradient>
<linearGradient id="paint5_linear_821_2486" x1="4.97025" y1="19.5458" x2="9.43973" y2="11.8044" gradientUnits="userSpaceOnUse">
<stop stop-color="#25136D"/>
<stop offset="1" stop-color="#3D9BA2"/>
</linearGradient>
<linearGradient id="paint6_linear_821_2486" x1="8.55624" y1="24.0478" x2="8.55624" y2="15.1089" gradientUnits="userSpaceOnUse">
<stop stop-color="#25136D"/>
<stop offset="1" stop-color="#3D9BA2"/>
</linearGradient>
<linearGradient id="paint7_linear_821_2486" x1="13.9128" y1="26.1538" x2="9.44331" y2="18.4125" gradientUnits="userSpaceOnUse">
<stop stop-color="#25136D"/>
<stop offset="1" stop-color="#3D9BA2"/>
</linearGradient>
<linearGradient id="paint8_linear_821_2486" x1="19.605" y1="25.2991" x2="11.8636" y2="20.8296" gradientUnits="userSpaceOnUse">
<stop stop-color="#25136D"/>
<stop offset="1" stop-color="#3D9BA2"/>
</linearGradient>
<linearGradient id="paint9_linear_821_2486" x1="24.1072" y1="21.7134" x2="15.1683" y2="21.7134" gradientUnits="userSpaceOnUse">
<stop stop-color="#25136D"/>
<stop offset="1" stop-color="#3D9BA2"/>
</linearGradient>
<linearGradient id="paint10_linear_821_2486" x1="26.2133" y1="16.357" x2="18.472" y2="20.8265" gradientUnits="userSpaceOnUse">
<stop stop-color="#25136D"/>
<stop offset="1" stop-color="#3D9BA2"/>
</linearGradient>
<linearGradient id="paint11_linear_821_2486" x1="25.3588" y1="10.6648" x2="20.8894" y2="18.4061" gradientUnits="userSpaceOnUse">
<stop stop-color="#25136D"/>
<stop offset="1" stop-color="#3D9BA2"/>
</linearGradient>
</defs>
</svg>